<?xml version="1.0" encoding="UTF-8"?>
<svg width="200" height="80" viewBox="0 0 200 80" fill="none" xmlns="http://www.w3.org/2000/svg">
  <!-- Circular Chamber Symbol -->
  <circle cx="100" cy="35" r="25" fill="url(#chamber-gradient)" stroke="#1A1A1A" stroke-width="2"/>
  
  <!-- Handshake Symbol -->
  <path d="M85 35C85 35 90 30 100 30C110 30 115 35 115 35C115 35 110 40 100 40C90 40 85 35 85 35Z" fill="#FFFFFF" stroke="#1A1A1A" stroke-width="2"/>
  
  <!-- Stars -->
  <path d="M95 25L97 28H100L98 31L99 34L95 32L91 34L92 31L90 28H93L95 25Z" fill="#FFD700"/>
  <path d="M105 25L107 28H110L108 31L109 34L105 32L101 34L102 31L100 28H103L105 25Z" fill="#FFD700"/>
  
  <!-- Company Name -->
  <text x="100" y="70" text-anchor="middle" font-family="Arial" font-weight="bold" font-size="10" fill="#1A1A1A">
    ETHIOPIAN CHAMBER OF COMMERCE
  </text>
  
  <!-- Gradients -->
  <defs>
    <linearGradient id="chamber-gradient" x1="75" y1="10" x2="125" y2="60">
      <stop offset="0%" stop-color="#4F46E5"/>
      <stop offset="50%" stop-color="#3B82F6"/>
      <stop offset="100%" stop-color="#10B981"/>
    </linearGradient>
  </defs>
</svg> 