<?xml version="1.0" encoding="UTF-8"?>
<svg width="200" height="200" viewBox="0 0 200 200" fill="none" xmlns="http://www.w3.org/2000/svg">
  <!-- Medical Cross -->
  <g transform="translate(100, 100)">
    <rect x="-40" y="-10" width="80" height="20" fill="url(#cross-gradient)" rx="5"/>
    <rect x="-10" y="-40" width="20" height="80" fill="url(#cross-gradient)" rx="5"/>
  </g>
  
  <!-- Medical Equipment -->
  <!-- Stethoscope -->
  <path d="M60 140C60 120 80 120 80 140" stroke="url(#equipment-gradient)" stroke-width="2" fill="none"/>
  <path d="M80 140V160" stroke="url(#equipment-gradient)" stroke-width="2"/>
  <circle cx="60" cy="140" r="4" fill="url(#circle-gradient)"/>
  
  <!-- Syringe -->
  <g transform="translate(120, 80)">
    <path d="M0 0V30" stroke="url(#syringe-gradient)" stroke-width="2"/>
    <path d="M-5 10H5" stroke="url(#syringe-gradient)" stroke-width="2"/>
    <path d="M-3 15H3" stroke="url(#syringe-gradient)" stroke-width="2"/>
    <path d="M-2 20H2" stroke="url(#syringe-gradient)" stroke-width="2"/>
  </g>
  
  <!-- Pills -->
  <g transform="translate(140, 120)">
    <circle cx="0" cy="0" r="6" fill="url(#pill1-gradient)"/>
    <circle cx="10" cy="5" r="6" fill="url(#pill2-gradient)"/>
  </g>
  
  <!-- Pulse Line -->
  <path d="M40 100H70L80 80L90 120L100 90L110 110L120 100H160" 
        stroke="url(#pulse-gradient)" 
        stroke-width="2"
        stroke-linecap="round"
        stroke-linejoin="round"
        stroke-dasharray="2 2"/>
  
  <!-- Gradients -->
  <defs>
    <linearGradient id="cross-gradient" x1="0%" y1="0%" x2="100%" y2="100%">
      <stop offset="0%" stop-color="#22C55E"/>
      <stop offset="50%" stop-color="#3B82F6"/>
      <stop offset="100%" stop-color="#A855F7"/>
    </linearGradient>
    
    <linearGradient id="equipment-gradient" x1="0%" y1="0%" x2="100%" y2="0%">
      <stop offset="0%" stop-color="#3B82F6"/>
      <stop offset="100%" stop-color="#A855F7"/>
    </linearGradient>
    
    <linearGradient id="circle-gradient" x1="0%" y1="0%" x2="100%" y2="100%">
      <stop offset="0%" stop-color="#22C55E"/>
      <stop offset="100%" stop-color="#3B82F6"/>
    </linearGradient>
    
    <linearGradient id="syringe-gradient" x1="0%" y1="0%" x2="100%" y2="100%">
      <stop offset="0%" stop-color="#22C55E"/>
      <stop offset="100%" stop-color="#3B82F6"/>
    </linearGradient>
    
    <linearGradient id="pill1-gradient" x1="0%" y1="0%" x2="100%" y2="100%">
      <stop offset="0%" stop-color="#22C55E" stop-opacity="0.8"/>
      <stop offset="100%" stop-color="#3B82F6" stop-opacity="0.8"/>
    </linearGradient>
    
    <linearGradient id="pill2-gradient" x1="0%" y1="0%" x2="100%" y2="100%">
      <stop offset="0%" stop-color="#3B82F6" stop-opacity="0.8"/>
      <stop offset="100%" stop-color="#A855F7" stop-opacity="0.8"/>
    </linearGradient>
    
    <linearGradient id="pulse-gradient" x1="0%" y1="0%" x2="100%" y2="0%">
      <stop offset="0%" stop-color="#22C55E"/>
      <stop offset="50%" stop-color="#3B82F6"/>
      <stop offset="100%" stop-color="#A855F7"/>
    </linearGradient>
  </defs>
  
  <!-- Animation -->
  <style>
    @keyframes pulse {
      0% { stroke-dashoffset: 0; }
      100% { stroke-dashoffset: 20; }
    }
    path[stroke-dasharray] {
      animation: pulse 2s linear infinite;
    }
  </style>
</svg> 