<?xml version="1.0" encoding="UTF-8"?>
<svg width="200" height="200" viewBox="0 0 200 200" fill="none" xmlns="http://www.w3.org/2000/svg">
  <!-- Warehouse Building -->
  <path d="M40 160V80L100 40L160 80V160H40Z" stroke="url(#building-gradient)" stroke-width="2" fill="none"/>
  <path d="M40 80L100 120L160 80" stroke="url(#building-gradient)" stroke-width="2" fill="none"/>
  <path d="M100 40V120" stroke="url(#building-gradient)" stroke-width="2" fill="none"/>
  
  <!-- Door -->
  <path d="M70 160V120H90V160" stroke="url(#door-gradient)" stroke-width="2" fill="none"/>
  
  <!-- Boxes -->
  <rect x="110" y="120" width="20" height="20" fill="url(#box-gradient)" stroke="url(#box-stroke)" stroke-width="1"/>
  <rect x="120" y="100" width="20" height="20" fill="url(#box-gradient)" stroke="url(#box-stroke)" stroke-width="1"/>
  <rect x="130" y="130" width="20" height="30" fill="url(#box-gradient)" stroke="url(#box-stroke)" stroke-width="1"/>
  
  <!-- Forklift -->
  <g transform="translate(80, 140)">
    <!-- Base -->
    <rect x="0" y="0" width="15" height="10" fill="url(#forklift-gradient)"/>
    <!-- Lift -->
    <path d="M12 -15V5" stroke="url(#forklift-gradient)" stroke-width="2"/>
    <path d="M12 -15H15" stroke="url(#forklift-gradient)" stroke-width="2"/>
    <!-- Wheels -->
    <circle cx="3" cy="10" r="2" fill="url(#wheel-gradient)"/>
    <circle cx="12" cy="10" r="2" fill="url(#wheel-gradient)"/>
  </g>
  
  <!-- Gradients -->
  <defs>
    <linearGradient id="building-gradient" x1="0%" y1="0%" x2="100%" y2="100%">
      <stop offset="0%" stop-color="#22C55E"/>
      <stop offset="50%" stop-color="#3B82F6"/>
      <stop offset="100%" stop-color="#A855F7"/>
    </linearGradient>
    
    <linearGradient id="door-gradient" x1="0%" y1="0%" x2="100%" y2="0%">
      <stop offset="0%" stop-color="#3B82F6"/>
      <stop offset="100%" stop-color="#A855F7"/>
    </linearGradient>
    
    <linearGradient id="box-gradient" x1="0%" y1="0%" x2="100%" y2="100%">
      <stop offset="0%" stop-color="#22C55E" stop-opacity="0.2"/>
      <stop offset="100%" stop-color="#3B82F6" stop-opacity="0.2"/>
    </linearGradient>
    
    <linearGradient id="box-stroke" x1="0%" y1="0%" x2="100%" y2="0%">
      <stop offset="0%" stop-color="#22C55E"/>
      <stop offset="100%" stop-color="#3B82F6"/>
    </linearGradient>
    
    <linearGradient id="forklift-gradient" x1="0%" y1="0%" x2="100%" y2="0%">
      <stop offset="0%" stop-color="#3B82F6"/>
      <stop offset="100%" stop-color="#A855F7"/>
    </linearGradient>
    
    <linearGradient id="wheel-gradient" x1="0%" y1="0%" x2="100%" y2="100%">
      <stop offset="0%" stop-color="#22C55E"/>
      <stop offset="100%" stop-color="#3B82F6"/>
    </linearGradient>
  </defs>
  
  <!-- Animation -->
  <style>
    @keyframes forklift {
      0% { transform: translateX(0); }
      50% { transform: translateX(20px); }
      100% { transform: translateX(0); }
    }
    g {
      animation: forklift 3s ease-in-out infinite;
    }
  </style>
</svg> 